<svg viewBox="0 0 14.3 12.5">
<path fill="#FFFFFF" d="M14.3,1.5c-0.5,0.3-1.1,0.4-1.7,0.5c0.6-0.4,1.1-1,1.3-1.7c-0.6,0.4-1.2,0.6-1.9,0.8c-0.5-0.6-1.3-1-2.1-1
	C8.3,0,7,1.4,7,3.2c0,0.2,0,0.5,0.1,0.7C4.6,3.8,2.4,2.5,1,0.6C0.7,1,0.6,1.6,0.6,2.2c0,1.1,0.5,2.1,1.3,2.6C1.4,4.8,1,4.6,0.6,4.4
	c0,0,0,0,0,0c0,1.5,1,2.8,2.4,3.1C2.7,7.6,2.4,7.7,2.2,7.7c-0.2,0-0.4,0-0.6-0.1C2,8.9,3.1,9.8,4.4,9.8c-1,0.9-2.3,1.4-3.7,1.4
	c-0.2,0-0.5,0-0.7,0c1.3,0.9,2.8,1.4,4.5,1.4c5.4,0,8.4-4.8,8.4-9c0-0.1,0-0.3,0-0.4C13.4,2.7,13.9,2.1,14.3,1.5z"/>
</svg>
